Coordinates
version=1
nRows=10
nColumns=63
inDegrees=yes

Units are S.I. units (second, meters, Newtons, ...)
If the header above contains a line with 'inDegrees', this indicates whether rotational values are in degrees (yes) or radians (no).

endheader
time	pelvis_tilt	pelvis_list	pelvis_rotation	pelvis_tx	pelvis_ty	pelvis_tz	hip_flexion_r	hip_adduction_r	hip_rotation_r	knee_angle_r	knee_angle_r_beta	ankle_angle_r	subtalar_angle_r	mtp_angle_r	hip_flexion_l	hip_adduction_l	hip_rotation_l	knee_angle_l	knee_angle_l_beta	ankle_angle_l	subtalar_angle_l	mtp_angle_l	L5_S1_Flex_Ext	L5_S1_Lat_Bending	L5_S1_axial_rotation	L4_L5_Flex_Ext	L4_L5_Lat_Bending	L4_L5_axial_rotation	L3_L4_Flex_Ext	L3_L4_Lat_Bending	L3_L4_axial_rotation	L2_L3_Flex_Ext	L2_L3_Lat_Bending	L2_L3_axial_rotation	L1_L2_Flex_Ext	L1_L2_Lat_Bending	L1_L2_axial_rotation	L1_T12_Flex_Ext	L1_T12_Lat_Bending	L1_T12_axial_rotation	Abs_r3	Abs_r2	Abs_r1	Abs_t1	Abs_t2	neck_flexion	neck_bending	neck_rotation	arm_flex_r	arm_add_r	arm_rot_r	elbow_flex_r	pro_sup_r	wrist_flex_r	wrist_dev_r	arm_flex_l	arm_add_l	arm_rot_l	elbow_flex_l	pro_sup_l	wrist_flex_l	wrist_dev_l
      2.05660377	      9.79417567	      0.21843822	     83.19662656	      0.46569289	      0.70640813	      0.77532202	      2.36414177	      5.93893423	     16.43591833	      0.36301939	      0.00633588	     11.87705352	    -12.56259508	      0.00000000	      8.92879662	     -5.74309360	      6.24297919	     16.03501005	      0.27986372	     22.97089092	    -12.62359455	      0.00000000	     -0.11063950	      0.53111649	      0.58422953	     -0.20546862	      0.70638494	      0.62074387	     -0.18176964	      1.29135664	      0.62074387	     -0.12644989	      1.29135664	      0.51120084	     -0.10273984	      1.08305275	      0.47468649	     -0.06321941	      0.82269945	      0.43817215	     -0.79028690	      6.00809600	      3.24930937	      0.00000000	      0.00000000	     13.11144559	      3.75295261	     -2.34160822	     22.44135271	    -23.30399698	     15.20963744	    149.67921165	     88.20680528	      8.97923325	      6.20614665	     22.77350277	    -26.03996532	      0.63803104	    149.75220912	     85.91526191	      9.95991039	      3.93295659
      2.07547170	      9.68159735	      0.00279150	     83.41462699	      0.46579358	      0.70567743	      0.77427130	      2.47989180	      5.84152810	     16.39600107	      0.37761237	      0.00659058	     12.02967277	    -12.72137170	      0.00000000	      9.16124213	     -5.63129754	      6.40836287	     16.12757052	      0.28147921	     23.12704323	    -12.75129975	      0.00000000	     -0.08112098	      0.50430254	      0.51686249	     -0.15064977	      0.67072238	      0.54916640	     -0.13327366	      1.22616120	      0.54916640	     -0.09271317	      1.22616120	      0.45225468	     -0.07532894	      1.02837374	      0.41995077	     -0.04635253	      0.78116464	      0.38764687	     -0.57943906	      5.70477120	      2.87463412	      0.00000000	      0.00000000	     14.80463969	      4.25996286	     -2.80469256	     21.32284016	    -23.44573176	     14.32760303	    149.63103229	     88.62342502	      7.11241760	      8.08999154	     22.06288178	    -25.85451560	     -1.56838974	    149.59145066	     87.07618406	      8.85924732	      6.77124578
      2.09433962	      9.50648597	     -0.18503363	     83.79902858	      0.46565128	      0.70536355	      0.77346980	      2.65230943	      5.66058061	     16.45748948	      0.37955002	      0.00662440	     12.43617089	    -12.86037638	      0.00000000	      9.32646651	     -5.43575749	      6.69416428	     16.02525153	      0.27969340	     23.23080201	    -12.66582540	      0.00000000	     -0.05339338	      0.46661285	      0.47523630	     -0.09915684	      0.62059508	      0.50493857	     -0.08771998	      1.13452247	      0.50493857	     -0.06102329	      1.13452247	      0.41583177	     -0.04958109	      0.95151691	      0.38612950	     -0.03050898	      0.72278330	      0.35642723	     -0.38138357	      5.27841783	      2.64312175	      0.00000000	      0.00000000	     16.17615581	      4.84001328	     -3.69045424	     20.17327890	    -23.65147998	     13.06672292	    149.59109514	     88.81577816	      5.28249024	     10.12622192	     21.46293830	    -25.80477253	     -3.20182472	    149.17713357	     88.02390876	      7.93404977	      7.99627487
      2.11320755	      9.30504657	     -0.29176932	     84.39425736	      0.46517566	      0.70566230	      0.77284660	      2.80727859	      5.41644771	     16.08976855	      0.36983140	      0.00645478	     13.21053410	    -12.25802060	      0.00000000	      9.36738008	     -5.21068426	      6.87958749	     15.71252953	      0.27423537	     23.46355095	    -11.99338218	      0.00000000	     -0.03144445	      0.42147368	      0.49283551	     -0.05839548	      0.56056000	      0.52363773	     -0.05166008	      1.02477112	      0.52363773	     -0.03593786	      1.02477112	      0.43123107	     -0.02919931	      0.85946914	      0.40042885	     -0.01796736	      0.65286274	      0.36962664	     -0.22460453	      4.76779462	      2.74100328	      0.00000000	      0.00000000	     17.18421201	      5.54514456	     -5.10984149	     18.75882048	    -23.85287032	     11.34621436	    149.54125847	     88.93866772	      3.36472213	     12.17698015	     21.05786355	    -25.56557783	     -3.76591911	    148.12959837	     88.40177812	      7.27778327	      7.53511725
      2.13207547	      9.09378894	     -0.40760513	     85.11426994	      0.46443454	      0.70644320	      0.77218937	      3.00963007	      5.14514310	     15.82436555	      0.35316030	      0.00616381	     13.93520640	    -11.88417175	      0.00000000	      9.37835965	     -4.97540642	      7.05531236	     15.23879650	      0.26596717	     23.72947918	    -11.10358899	      0.00000000	     -0.00614114	      0.36265242	      0.59449134	     -0.01140471	      0.48232772	      0.63164705	     -0.01008928	      0.88175310	      0.63164705	     -0.00701871	      0.88175310	      0.52017992	     -0.00570266	      0.73952082	      0.48302421	     -0.00350905	      0.56174860	      0.44586850	     -0.04386555	      4.10239671	      3.30638247	      0.00000000	      0.00000000	     18.16059595	      6.36812091	     -7.83639926	     16.81788911	    -24.07723362	      8.98588876	    149.47287810	     89.01293239	      1.32268569	     13.79240045	     20.74001785	    -25.07701954	     -2.62908676	    146.54864301	     88.49411128	      6.02460044	      5.52358734
      2.15094340	      9.11474255	     -0.63497179	     85.86783484	      0.46295329	      0.70746574	      0.77123198	      3.31297943	      5.08681538	     15.88466601	      0.33793594	      0.00589809	     14.18519694	    -12.22008637	      0.00000000	      9.50570182	     -4.93229235	      7.40876078	     14.76654812	      0.25772488	     24.01992218	    -10.46123939	      0.00000000	      0.03519277	      0.34263406	      0.68950767	      0.06535648	      0.45570330	      0.73260190	      0.05781819	      0.83308045	      0.73260190	      0.04022181	      0.83308045	      0.60331921	      0.03268000	      0.69869938	      0.56022498	      0.02010915	      0.53074016	      0.51713075	      0.25137840	      3.87594502	      3.83483481	      0.00000000	      0.00000000	     18.98224437	      7.17259194	    -10.12066591	     14.91684252	    -24.36478724	      6.80337872	    149.21976949	     89.08743008	     -0.27829794	     15.19167229	     19.57274003	    -24.19548427	     -1.04715580	    145.22823372	     88.40990465	      5.40377369	      4.05863485
      2.16981132	      9.18673276	     -0.90940138	     86.70833186	      0.46129406	      0.70853233	      0.77035079	      3.67677884	      5.07250037	     15.97185428	      0.32533749	      0.00567821	     14.18936294	    -12.91037206	      0.00000000	      9.71857142	     -4.93758805	      7.76325701	     14.25682694	      0.24882857	     24.37673747	     -9.70208659	      0.00000000	      0.07984078	      0.32751234	      0.75295107	      0.14827231	      0.43559142	      0.80001051	      0.13117041	      0.79631351	      0.80001051	      0.09125002	      0.79631351	      0.65883219	      0.07414014	      0.66786317	      0.61177274	      0.04562102	      0.50731662	      0.56471330	      0.57029468	      3.70488514	      4.18768796	      0.00000000	      0.00000000	     19.94201184	      7.61757695	    -12.90926549	     12.66155200	    -24.46261337	      5.05069905	    148.58100377	     89.15472201	     -1.52504805	     15.39631252	     17.81533137	    -23.38632560	      1.37181805	    144.15770872	     87.76370665	      4.68808303	      3.41870128
      2.18867925	      9.19385500	     -1.04795153	     87.59138695	      0.45954011	      0.70936308	      0.76990411	      3.92489708	      4.98014390	     15.81445119	      0.32714642	      0.00570978	     14.35431289	    -13.39100876	      0.00000000	      9.87798072	     -4.86060422	      8.12588141	     13.79988435	      0.24085342	     24.96699688	     -8.74925118	      0.00000000	      0.10079618	      0.30878452	      0.75968183	      0.18718858	      0.41068341	      0.80716195	      0.16559804	      0.75077869	      0.80716195	      0.11519995	      0.75077869	      0.66472160	      0.09359933	      0.62967340	      0.61724149	      0.05759494	      0.47830723	      0.56976137	      0.71997701	      3.49303228	      4.22512244	      0.00000000	      0.00000000	     20.93264607	      7.54771172	    -15.54415022	     10.45719175	    -24.20712902	      4.05089532	    147.25203006	     89.19943788	     -2.57369865	     14.74055324	     15.88188936	    -22.75910155	      4.49406151	    143.26015766	     86.46950051	      4.10433609	      4.96707233
      2.20754717	      9.21517069	     -1.27549169	     88.51176938	      0.45771570	      0.70946718	      0.76997433	      4.28866604	      4.89290132	     15.54051267	      0.33650005	      0.00587303	     14.49669626	    -13.86912548	      0.00000000	     10.18542273	     -4.76215513	      8.75024294	     13.35192819	      0.23303511	     25.64258609	     -7.99017190	      0.00000000	      0.13894118	      0.30218267	      0.64416412	      0.25802766	      0.40190295	      0.68442438	      0.22826646	      0.73472695	      0.68442438	      0.15879587	      0.73472695	      0.56364361	      0.12902078	      0.61621090	      0.52338335	      0.07939099	      0.46808096	      0.48312309	      0.99244292	      3.41835082	      3.58264759	      0.00000000	      0.00000000	     21.82822414	      7.11231337	    -17.59309679	      9.03738611	    -23.83423760	      4.46226461	    144.91260872	     89.22757429	     -4.05400871	     13.80423818	     13.76384448	    -22.55824631	      7.98532780	    142.28130380	     83.71983152	      3.07881169	      7.97003041
      2.22641509	      9.16588801	     -1.49015284	     89.48810859	      0.45574640	      0.70892458	      0.77052315	      4.64505852	      4.71600409	     15.25925816	      0.34956507	      0.00610106	     14.63414334	    -14.56205711	      0.00000000	     10.49678685	     -4.53921334	      9.66323318	     12.89537927	      0.22506683	     26.19012477	     -7.40416545	      0.00000000	      0.17398321	      0.29493985	      0.42594136	      0.32310423	      0.39227000	      0.45256269	      0.28583702	      0.71711675	      0.45256269	      0.19884542	      0.71711675	      0.37269869	      0.16156081	      0.60144134	      0.34607735	      0.09941401	      0.45686183	      0.31945602	      1.24274470	      3.33641857	      2.36895804	      0.00000000	      0.00000000	     22.79688302	      6.27490903	    -19.14377240	      8.52663213	    -23.44995664	      6.02373913	    141.67487600	     89.24025792	     -5.79467491	     12.92982327	     11.95138691	    -22.73377603	     11.91541372	    140.89801592	     79.94944476	      0.30305013	     11.67539798
